<svg width="32" height="32" viewBox="0 0 32 32" fill="none" xmlns="http://www.w3.org/2000/svg">
<path d="M26.9952 7.03337C26.3599 6.38873 25.6056 5.87736 24.7754 5.52847C23.9451 5.17958 23.0553 5 22.1566 5C21.258 5 20.3681 5.17958 19.5379 5.52847C18.7077 5.87736 17.9534 6.38873 17.3181 7.03337L15.9997 8.37059L14.6812 7.03337C13.398 5.73186 11.6575 5.00067 9.84269 5.00067C8.0279 5.00067 6.28743 5.73186 5.00418 7.03337C3.72092 8.33488 3 10.1001 3 11.9407C3 13.7813 3.72092 15.5466 5.00418 16.8481L6.32264 18.1853L15.9997 28L25.6767 18.1853L26.9952 16.8481C27.6307 16.2037 28.1349 15.4387 28.4789 14.5967C28.8229 13.7547 29 12.8522 29 11.9407C29 11.0293 28.8229 10.1268 28.4789 9.28475C28.1349 8.44273 27.6307 7.6777 26.9952 7.03337V7.03337Z" stroke="#101820" stroke-width="2" stroke-linecap="round" stroke-linejoin="round"/>
</svg>
