<svg width="32" height="32" viewBox="0 0 32 32" fill="none" xmlns="http://www.w3.org/2000/svg">
<path d="M22.0002 4H10.0002C6.68654 4 4.00024 6.68629 4.00024 10V22C4.00024 25.3137 6.68654 28 10.0002 28H22.0002C25.314 28 28.0002 25.3137 28.0002 22V10C28.0002 6.68629 25.314 4 22.0002 4Z" stroke="#FFFFFF" stroke-width="2" stroke-linecap="round" stroke-linejoin="round"/>
<path d="M20.7987 15.2441C20.9468 16.2428 20.7762 17.2628 20.3112 18.1589C19.8462 19.0551 19.1105 19.7818 18.2086 20.2357C17.3068 20.6896 16.2848 20.8476 15.288 20.6872C14.2912 20.5268 13.3704 20.0562 12.6565 19.3423C11.9426 18.6284 11.472 17.7076 11.3116 16.7108C11.1512 15.714 11.3092 14.692 11.7631 13.7902C12.217 12.8883 12.9437 12.1526 13.8399 11.6876C14.736 11.2226 15.756 11.052 16.7547 11.2001C17.7734 11.3512 18.7165 11.8259 19.4447 12.5541C20.1729 13.2823 20.6476 14.2254 20.7987 15.2441Z" stroke="#FFFFFF" stroke-width="2" stroke-linecap="round" stroke-linejoin="round"/>
<path d="M22.6005 9.3999H22.6151" stroke="#FFFFFF" stroke-width="1.6" stroke-linecap="round" stroke-linejoin="round"/>
</svg>
