<svg width="32" height="32" viewBox="0 0 32 32" fill="none" xmlns="http://www.w3.org/2000/svg">
<path d="M20.3999 11.6316C22.1504 11.6316 23.8291 12.3303 25.0669 13.5739C26.3047 14.8176 27 16.5044 27 18.2632V26H22.5999V18.2632C22.5999 17.6769 22.3682 17.1146 21.9556 16.7001C21.543 16.2855 20.9834 16.0526 20.3999 16.0526C19.8164 16.0526 19.2568 16.2855 18.8443 16.7001C18.4317 17.1146 18.1999 17.6769 18.1999 18.2632V26H13.7998V18.2632C13.7998 16.5044 14.4952 14.8176 15.7329 13.5739C16.9707 12.3303 18.6495 11.6316 20.3999 11.6316V11.6316Z" stroke="#101820" stroke-width="2" stroke-linecap="round" stroke-linejoin="round"/>
<path d="M9.40007 12.7368H5V26H9.40007V12.7368Z" stroke="#101820" stroke-width="2" stroke-linecap="round" stroke-linejoin="round"/>
<path d="M7.20004 9.42105C8.41508 9.42105 9.40007 8.43137 9.40007 7.21053C9.40007 5.98969 8.41508 5 7.20004 5C5.98499 5 5 5.98969 5 7.21053C5 8.43137 5.98499 9.42105 7.20004 9.42105Z" stroke="#101820" stroke-width="2" stroke-linecap="round" stroke-linejoin="round"/>
</svg>
