<svg width="32" height="32" viewBox="0 0 32 32" fill="none" xmlns="http://www.w3.org/2000/svg">
<path d="M27.9993 21.9699V25.5831C28.0006 25.9185 27.9318 26.2505 27.7971 26.5579C27.6625 26.8652 27.465 27.1411 27.2174 27.3679C26.9698 27.5946 26.6774 27.7673 26.359 27.8747C26.0407 27.9822 25.7033 28.0221 25.3686 27.9919C21.6554 27.5892 18.0885 26.3228 14.9547 24.2944C12.0391 22.4452 9.56712 19.978 7.7144 17.0679C5.67503 13.9259 4.40589 10.3485 4.00979 6.62572C3.97964 6.29267 4.0193 5.95699 4.12624 5.64007C4.23319 5.32314 4.40508 5.03192 4.63097 4.78493C4.85686 4.53795 5.1318 4.34061 5.43829 4.20549C5.74478 4.07038 6.0761 4.00043 6.41115 4.00012H10.0313C10.6169 3.99436 11.1847 4.20135 11.6287 4.58249C12.0727 4.96363 12.3628 5.49292 12.4447 6.0717C12.5975 7.22801 12.8809 8.36335 13.2894 9.45608C13.4518 9.88717 13.4869 10.3557 13.3907 10.8061C13.2944 11.2565 13.0708 11.6699 12.7464 11.9974L11.2139 13.527C12.9317 16.5423 15.4331 19.0389 18.4542 20.7534L19.9867 19.2238C20.3148 18.9 20.729 18.6768 21.1803 18.5808C21.6315 18.4847 22.1009 18.5198 22.5328 18.6818C23.6277 19.0896 24.7652 19.3724 25.9237 19.5249C26.5099 19.6075 27.0452 19.9022 27.4279 20.3529C27.8106 20.8037 28.0139 21.3792 27.9993 21.9699Z" stroke="#101820" stroke-width="2" stroke-linecap="round" stroke-linejoin="round"/>
</svg>
