<svg width="32" height="32" viewBox="0 0 32 32" fill="none" xmlns="http://www.w3.org/2000/svg">
<path d="M5 8.80005H7.44444H27" stroke="#101820" stroke-width="2" stroke-linecap="round" stroke-linejoin="round"/>
<path d="M11.1115 8.8V6.4C11.1115 5.76348 11.369 5.15303 11.8275 4.70294C12.2859 4.25286 12.9076 4 13.5559 4H18.4448C19.0931 4 19.7149 4.25286 20.1733 4.70294C20.6317 5.15303 20.8893 5.76348 20.8893 6.4V8.8M24.5559 8.8V25.6C24.5559 26.2365 24.2984 26.847 23.84 27.2971C23.3816 27.7471 22.7598 28 22.1115 28H9.88927C9.24096 28 8.61921 27.7471 8.16079 27.2971C7.70236 26.847 7.44482 26.2365 7.44482 25.6V8.8H24.5559Z" stroke="#101820" stroke-width="2" stroke-linecap="round" stroke-linejoin="round"/>
<path d="M13.5559 14.8V22" stroke="#101820" stroke-width="2" stroke-linecap="round" stroke-linejoin="round"/>
<path d="M18.4447 14.8V22" stroke="#101820" stroke-width="2" stroke-linecap="round" stroke-linejoin="round"/>
</svg>
