<svg width="32" height="32" viewBox="0 0 32 32" fill="none" xmlns="http://www.w3.org/2000/svg">
<path d="M28.0002 6.01121C26.9556 6.76409 25.7989 7.33993 24.5748 7.71654C23.9178 6.9447 23.0446 6.39763 22.0734 6.14934C21.1021 5.90104 20.0797 5.9635 19.1443 6.32826C18.209 6.69302 17.4058 7.34249 16.8435 8.18882C16.2812 9.03515 15.9868 10.0375 16.0002 11.0603V12.1749C14.0831 12.2257 12.1835 11.7913 10.4704 10.9104C8.75742 10.0294 7.28423 8.72931 6.18206 7.12581C6.18206 7.12581 1.81843 17.1572 11.6366 21.6156C9.38991 23.1738 6.71351 23.9551 4.00024 23.8448C13.8184 29.4178 25.8184 23.8448 25.8184 11.0269C25.8174 10.7164 25.7882 10.4067 25.7312 10.1018C26.8445 8.97993 27.6302 7.56352 28.0002 6.01121V6.01121Z" stroke="#101820" stroke-width="2" stroke-linecap="round" stroke-linejoin="round"/>
</svg>
