<svg width="32" height="32" viewBox="0 0 32 32" fill="none" xmlns="http://www.w3.org/2000/svg">
<path d="M27.4976 10.6611C27.368 10.1392 27.1041 9.66104 26.7325 9.2749C26.3609 8.88875 25.8949 8.60829 25.3813 8.46184C23.5051 8 16 8 16 8C16 8 8.49494 8 6.61867 8.50582C6.10515 8.65227 5.63906 8.93274 5.26748 9.31888C4.8959 9.70503 4.632 10.1832 4.50242 10.705C4.15903 12.6245 3.99106 14.5716 4.00062 16.522C3.98838 18.487 4.15636 20.449 4.50242 22.3829C4.64527 22.8886 4.91509 23.3485 5.2858 23.7184C5.65652 24.0882 6.11559 24.3554 6.61867 24.4942C8.49494 25 16 25 16 25C16 25 23.5051 25 25.3813 24.4942C25.8949 24.3477 26.3609 24.0673 26.7325 23.6811C27.1041 23.295 27.368 22.8168 27.4976 22.295C27.8383 20.39 28.0063 18.4577 27.9994 16.522C28.0116 14.5569 27.8436 12.5949 27.4976 10.6611V10.6611Z" stroke="#101820" stroke-width="2" stroke-linecap="round" stroke-linejoin="round"/>
<path d="M13.5459 20.1177L19.8183 16.522L13.5459 12.9263V20.1177Z" stroke="#101820" stroke-width="2" stroke-linecap="round" stroke-linejoin="round"/>
</svg>
